HIERARCHY
ROOT Hips
{
	OFFSET -3.958830 18.904000 13.208200
	CHANNELS 6 Xposition Yposition Zposition Zrotation Yrotation Xrotation 
	JOINT LHipJoint
	{
		OFFSET 0.000000 0.000000 0.000000
		CHANNELS 3 Zrotation Yrotation Xrotation
		JOINT LeftUpLeg
		{
			OFFSET 1.800000 -1.400000 0.085000
			CHANNELS 3 Zrotation Yrotation Xrotation
			JOINT LeftLeg
			{
				OFFSET 2.215000 -6.000000 0.000000
				CHANNELS 3 Zrotation Yrotation Xrotation
				JOINT LeftFoot
				{
					OFFSET 2.500000 -6.900000 0.000000
					CHANNELS 3 Zrotation Yrotation Xrotation
					JOINT LeftToeBase
					{
						OFFSET 0.200000 -0.500000 1.950000
						CHANNELS 3 Zrotation Yrotation Xrotation
						End Site
						{
							OFFSET 0.000000 0.000000 0.000000
						}
					}
				}
			}
		}
	}
	JOINT RHipJoint
	{
		OFFSET 0.000000 0.000000 0.000000
		CHANNELS 3 Zrotation Yrotation Xrotation
		JOINT RightUpLeg
		{
			OFFSET -1.800000 -1.400000 0.085000
			CHANNELS 3 Zrotation Yrotation Xrotation
			JOINT RightLeg
			{
				OFFSET -2.215000 -6.000000 0.000000
				CHANNELS 3 Zrotation Yrotation Xrotation
				JOINT RightFoot
				{
					OFFSET -2.500000 -6.900000 0.000000
					CHANNELS 3 Zrotation Yrotation Xrotation
					JOINT RightToeBase
					{
						OFFSET -0.200000 -0.500000 1.950000
						CHANNELS 3 Zrotation Yrotation Xrotation
						End Site
						{
							OFFSET 0.000000 0.000000 0.000000
						}
					}
				}
			}
		}
	}
	JOINT LowerBack
	{
		OFFSET 0.000000 0.000000 0.000000
		CHANNELS 3 Zrotation Yrotation Xrotation
		JOINT Spine
		{
			OFFSET -0.087000 1.940000 -0.288900
			CHANNELS 3 Zrotation Yrotation Xrotation
			JOINT Spine1
			{
				OFFSET 0.000000 1.950000 0.060000
				CHANNELS 3 Zrotation Yrotation Xrotation
				JOINT Neck
				{
					OFFSET 0.000000 0.000000 0.000000
					CHANNELS 3 Zrotation Yrotation Xrotation
					JOINT Neck1
					{
						OFFSET 0.000000 1.600000 0.340000
						CHANNELS 3 Zrotation Yrotation Xrotation
						JOINT Head
						{
							OFFSET 0.000000 1.667000 -0.240000
							CHANNELS 3 Zrotation Yrotation Xrotation
							End Site
							{
								OFFSET 0.000000 0.000000 0.000000
							}
						}
					}
				}
				JOINT LeftShoulder
				{
					OFFSET 0.000000 0.000000 0.000000
					CHANNELS 3 Zrotation Yrotation Xrotation
					JOINT LeftArm
					{
						OFFSET 2.700000 1.550000 -0.730000
						CHANNELS 3 Zrotation Yrotation Xrotation
						JOINT LeftForeArm
						{
							OFFSET 5.450000 0.000000 0.000000
							CHANNELS 3 Zrotation Yrotation Xrotation
							JOINT LeftHand
							{
								OFFSET 3.450000 0.000000 0.000000
								CHANNELS 3 Zrotation Yrotation Xrotation
								JOINT LeftHandIndex1
								{
									OFFSET 0.750000 0.000000 0.000000
									CHANNELS 3 Zrotation Yrotation Xrotation
									End Site
									{
										OFFSET 0.000000 0.000000 0.000000
									}
								}
							}
						}
					}
				}
				JOINT RightShoulder
				{
					OFFSET 0.000000 0.000000 0.000000
					CHANNELS 3 Zrotation Yrotation Xrotation
					JOINT RightArm
					{
						OFFSET -2.700000 1.550000 -0.730000
						CHANNELS 3 Zrotation Yrotation Xrotation
						JOINT RightForeArm
						{
							OFFSET -5.450000 0.000000 0.000000
							CHANNELS 3 Zrotation Yrotation Xrotation
							JOINT RightHand
							{
								OFFSET -3.450000 0.000000 0.000000
								CHANNELS 3 Zrotation Yrotation Xrotation
								JOINT RightHandIndex1
								{
									OFFSET -0.750000 0.000000 0.000000
									CHANNELS 3 Zrotation Yrotation Xrotation
									End Site
									{
										OFFSET 0.000000 0.000000 0.000000
									}
								}
							}
						}
					}
				}
			}
		}
	}
}
MOTION
Frames: 7
Frame Time: 0.016667
-0.060250 17.361400 -2.931750 -1.554649 11.530388 -1.614797 -14.294181 12.442341 2.625605 6.834929 -0.984066 -11.306841 -1.759508 3.351583 4.749917 -0.158737 2.678175 3.733163 0.155610 -0.040190 0.023320 18.991420 -12.431929 2.867975 -7.042610 -0.169739 -6.604632 1.846573 -4.155094 9.808025 -0.146234 -3.676020 3.299172 -0.079800 0.145300 -0.019480 -6.184808 2.433400 -7.323559 24.405282 0.807007 2.858899 -14.740096 2.230660 11.270442 5.490120 -7.655233 -14.751488 -12.810661 3.311175 48.329410 3.046280 -5.714550 3.815820 -27.462281 -15.345584 8.111735 -61.015455 3.004149 -6.415848 4.500067 -10.519541 -1.626088 -3.563613 2.985182 0.188950 -0.020240 -0.128520 0.115440 16.234257 26.634962 12.078007 49.788482 25.185754 -10.743032 -40.102350 39.640296 -19.800054 2.171852 -1.382191 -0.040330 0.064470 -0.027350 -0.003190 
-0.055070 17.361890 -2.930200 -1.671030 11.421638 -1.746909 -14.283163 12.409093 2.588932 6.971004 -0.951422 -11.221769 -1.774340 3.387111 4.935528 -0.159011 2.700239 3.735999 0.150590 -0.039250 0.006260 19.012754 -12.446555 2.877819 -6.913230 -0.232710 -6.294506 1.662164 -4.114071 9.484238 -0.147900 -3.708293 3.299206 -0.073860 0.170110 -0.021430 -6.221464 2.521893 -7.290972 24.824044 0.681956 2.676540 -15.013947 2.093545 11.918396 5.639562 -7.967439 -14.769772 -13.261073 3.565356 47.761376 3.090280 -5.742190 3.767430 -27.073062 -15.427380 8.085044 -61.409260 2.549693 -6.359113 5.023720 -10.590675 -1.670799 -3.579260 2.988930 0.174740 -0.005720 -0.143410 0.125010 15.683131 26.955877 12.237490 49.569291 26.524225 -10.745862 -43.014710 40.251479 -21.588534 2.159602 -1.367829 -0.046080 0.078250 -0.022650 0.006700 
-0.045100 17.360800 -2.922660 -1.632470 10.721246 -1.951398 -14.259914 12.333356 2.546050 7.134475 -0.894208 -10.820854 -2.069637 3.478841 5.078489 -0.149795 2.760109 3.731500 0.148880 -0.028570 -0.016390 19.049923 -12.494918 2.883256 -6.923126 -0.299717 -5.862796 1.144414 -4.010957 9.051094 -0.146581 -3.767455 3.290569 -0.056590 0.207280 -0.018570 -6.276125 2.736633 -7.241662 25.198925 0.654348 2.377226 -15.228811 1.998676 13.181003 5.986273 -8.575366 -14.822918 -14.025920 4.083462 46.596811 2.809510 -5.492970 3.748900 -26.593977 -15.407336 8.030315 -61.909220 2.021878 -6.465598 5.938946 -11.324025 -1.824582 -3.603714 3.012339 0.140150 0.022590 -0.168730 0.140550 14.830404 27.517669 12.522294 48.254205 29.346298 -10.412692 -48.141334 40.820042 -24.633172 2.155628 -1.364202 -0.049360 0.091790 -0.018850 0.023510 
-0.038700 17.360320 -2.924030 -1.405463 10.205921 -2.576695 -14.245849 12.296713 2.528915 7.338675 -0.768121 -9.821117 -2.448834 3.596113 4.991631 -0.163189 2.867615 3.703134 0.167170 0.002930 -0.021240 19.069832 -12.556779 2.844028 -7.108450 -0.332084 -5.638515 0.469447 -3.951121 9.520089 -0.150289 -3.801231 3.280790 -0.022100 0.226380 -0.025640 -6.304057 2.875595 -7.214100 25.297808 0.367743 2.639138 -15.608994 1.843775 15.009694 6.545016 -9.260545 -15.232081 -15.080105 4.774013 46.080985 3.163760 -5.512820 2.216230 -25.944250 -16.119573 8.058221 -62.469786 1.061888 -6.391535 7.135627 -11.367481 -1.940809 -3.610227 3.016538 0.143540 0.026920 -0.175630 0.148520 13.537737 28.870890 13.117300 45.873633 33.093424 -10.277198 -53.520782 39.163791 -27.212183 2.181462 -1.393775 -0.063230 0.126560 -0.013010 0.027490 
-0.033410 17.359760 -2.927930 -0.974538 9.505661 -3.018625 -14.237373 12.280000 2.503281 7.122604 -0.679454 -9.116886 -2.521244 3.670012 5.237497 -0.177951 2.923748 3.688771 0.193480 0.043580 -0.020920 19.084410 -12.594986 2.821507 -7.526738 -0.345006 -5.344246 -0.014891 -3.882980 9.550323 -0.154545 -3.850092 3.261917 0.016380 0.238630 -0.025200 -6.313516 2.940877 -7.196412 25.071937 0.307234 2.923882 -15.728395 1.860415 16.753106 7.090290 -9.807476 -15.700971 -16.133477 5.175227 45.363226 3.076700 -5.573450 1.124170 -25.815010 -17.139568 8.145863 -62.310586 0.128843 -6.002692 7.759731 -10.857834 -1.906514 -3.617122 3.044743 0.130940 0.036410 -0.184830 0.158240 12.785055 30.352672 13.757788 42.165062 36.437281 -10.640943 -58.203980 36.435355 -28.886464 2.247737 -1.494677 -0.065040 0.144370 -0.014800 0.033320 
-0.027470 17.363050 -2.934150 -0.975249 9.077711 -3.516840 -14.221250 12.260608 2.468236 7.372561 -0.592207 -8.704356 -2.698578 3.762720 5.486059 -0.186599 2.981481 3.667804 0.230940 0.087240 -0.010800 19.108879 -12.616998 2.822076 -7.448454 -0.412233 -4.793655 -0.503803 -3.799658 9.454393 -0.175728 -3.898840 3.234543 0.053480 0.237910 -0.021000 -6.352078 2.993192 -7.193992 25.367163 0.250957 3.168501 -15.841025 1.812671 18.182277 7.621144 -10.366121 -16.135603 -17.285115 5.531589 45.167237 3.425310 -6.016790 0.163540 -26.214021 -18.074112 8.194561 -61.705564 -0.717891 -5.473057 8.025874 -10.070899 -1.802224 -3.604537 3.085091 0.125960 0.030920 -0.184520 0.171380 12.512610 31.723984 14.373001 37.878312 38.752757 -11.791409 -62.427285 33.655439 -30.071640 2.346833 -1.615308 -0.059750 0.151020 -0.025880 0.039550 
-0.026130 17.366740 -2.940850 -0.740908 9.062794 -4.065718 -14.218672 12.297169 2.469997 7.456946 -0.506926 -8.322903 -2.906265 3.859867 5.682461 -0.189331 3.046323 3.647671 0.246320 0.106890 -0.016700 19.106574 -12.639222 2.783579 -7.546319 -0.400731 -4.688154 -0.942377 -3.759841 10.226386 -0.174675 -3.922004 3.217471 0.073250 0.250790 -0.016550 -6.353035 2.916401 -7.229636 25.125164 0.115857 3.737072 -15.581641 1.707886 19.496955 7.989317 -10.785198 -16.878077 -18.350735 5.787925 45.076632 3.923760 -6.556230 -0.310670 -26.813156 -19.767017 8.588976 -61.203115 -1.352339 -5.094799 8.771066 -9.326342 -1.729142 -3.594673 3.125810 0.119770 0.032770 -0.190000 0.180420 12.731576 33.739822 15.272487 33.450888 39.958757 -14.514865 -67.659273 31.404726 -31.868941 2.482884 -1.724170 -0.058380 0.160510 -0.024440 0.049480 
